<svg width="90" height="44" viewBox="0 0 90 44" fill="none" xmlns="http://www.w3.org/2000/svg">
<path d="M51.524 0L0 10.9358V44L51.524 33.0638V0Z" fill="#F74C00"/>
<path d="M17.464 12.1684L14.5898 35.9863L18.1977 35.2207L18.5649 31.2435L21.0109 30.7243L21.439 34.5329L25.3836 33.6958L22.2954 11.1428L17.464 12.1684ZM18.9622 27.1665L19.7572 19.0434L20.6132 26.816L18.9622 27.1665Z" fill="white"/>
<path d="M36.0601 17.4553V12.8074C36.0601 9.9375 35.326 8.3777 31.8709 9.11104L26.0918 10.3375V33.5457L30.1586 32.6826V23.3868L32.8731 32.0963L37.2939 31.158L34.1065 22.087C35.5607 21.2382 36.0601 19.4598 36.0601 17.4553ZM30.1586 13.0615L30.9232 12.8994C31.8709 12.6981 31.9628 13.2089 31.9628 14.0511V18.2795C31.9628 18.9971 31.8709 19.6091 30.9232 19.8104L30.1586 19.9728V13.0615Z" fill="white"/>
<path d="M8.89302 29.2105V37.1958L4.82617 38.0589V14.8507L10.605 13.6242C14.06 12.8909 14.7941 14.4507 14.7941 17.3206V23.2789C14.7941 26.1488 13.6627 28.1981 10.819 28.8017L8.89302 29.2105ZM8.89302 25.436L9.65755 25.274C10.6053 25.0727 10.6971 24.4607 10.6971 23.7431V18.5643C10.6971 17.7221 10.6053 17.2113 9.65755 17.4126L8.89302 17.5747V25.436Z" fill="white"/>
<path d="M89.4594 34.0337V0.963623L43.8027 10.6447V43.7148L89.4594 34.0337Z" fill="#F74C00"/>
<path d="M52.6958 27.0753V36.9016L48.6289 37.7647V14.5565L52.6958 13.6934V22.6148L55.3562 13.1287L59.3617 12.2788L56.1512 23.5036L59.6981 35.4155L55.4175 36.3241L52.6958 27.0753Z" fill="white"/>
<path d="M70.4778 27.8245C70.4778 31.2246 68.7045 33.847 65.6468 34.496L64.7295 34.6907C61.5189 35.3719 59.8066 33.7392 59.8066 30.0894V17.8302C59.8066 14.2428 61.1826 11.6116 64.699 10.865L65.6163 10.6703C69.1936 9.91098 70.4778 11.9779 70.4778 15.5342V27.8245ZM66.2277 16.1245C66.2277 15.0949 65.8608 14.674 65.1576 14.8232C64.3321 14.9985 64.0567 15.5558 64.0567 16.585V29.312C64.0567 30.0296 64.3318 30.6262 65.1881 30.4443C66.0136 30.269 66.2277 29.5687 66.2277 28.8511V16.1245Z" fill="white"/>
<path d="M71.8242 9.66085L76.8388 8.59642L78.3984 19.9942L79.9579 7.93458L84.6362 6.94165V30.1498L80.967 30.9286V17.2032L78.9488 31.3569L77.4201 31.6814L75.3715 18.3908V32.1159L71.8246 32.8687V9.66085H71.8242Z" fill="white"/>
<path d="M36.8125 8.06193V12.1484L39.7175 11.5321V30.6537L43.784 29.7906V10.6689L46.6886 10.0522V5.96606L36.8125 8.06193Z" fill="white"/>
</svg>
